<?xml version="1.0" standalone="no"?>
<!DOCTYPE svg PUBLIC "-//W3C//DTD SVG 20010904//EN"
 "http://www.w3.org/TR/2001/REC-SVG-20010904/DTD/svg10.dtd">
<svg version="1.0" xmlns="http://www.w3.org/2000/svg"
 width="1150.000000pt" height="1000.000000pt" viewBox="0 0 1150.000000 1000.000000"
 preserveAspectRatio="xMidYMid meet">

<g transform="translate(0.000000,1000.000000) scale(0.100000,-0.100000)"
fill="#000000" stroke="none">
<path d="M5928 9203 c7 -3 16 -2 19 1 4 3 -2 6 -13 5 -11 0 -14 -3 -6 -6z"/>
<path d="M6528 9063 c7 -3 16 -2 19 1 4 3 -2 6 -13 5 -11 0 -14 -3 -6 -6z"/>
<path d="M6698 8863 c6 -2 9 -10 6 -15 -4 -7 -2 -8 5 -4 13 9 5 26 -12 25 -9
0 -8 -2 1 -6z"/>
<path d="M7075 8750 c3 -5 8 -10 11 -10 2 0 4 5 4 10 0 6 -5 10 -11 10 -5 0
-7 -4 -4 -10z"/>
<path d="M4405 8700 c-3 -6 1 -7 9 -4 18 7 21 14 7 14 -6 0 -13 -4 -16 -10z"/>
<path d="M4910 8670 c-8 -5 -10 -10 -5 -10 6 0 17 5 25 10 8 5 11 10 5 10 -5
0 -17 -5 -25 -10z"/>
<path d="M5399 8603 c-13 -16 -12 -17 4 -4 9 7 17 15 17 17 0 8 -8 3 -21 -13z"/>
<path d="M7286 8607 c3 -10 9 -15 12 -12 3 3 0 11 -7 18 -10 9 -11 8 -5 -6z"/>
<path d="M4678 8543 c7 -3 16 -2 19 1 4 3 -2 6 -13 5 -11 0 -14 -3 -6 -6z"/>
<path d="M4056 8522 c-3 -5 1 -9 9 -9 8 0 12 4 9 9 -3 4 -7 8 -9 8 -2 0 -6 -4
-9 -8z"/>
<path d="M4100 8459 c0 -5 5 -7 10 -4 6 3 10 8 10 11 0 2 -4 4 -10 4 -5 0 -10
-5 -10 -11z"/>
<path d="M4571 8434 c0 -11 3 -14 6 -6 3 7 2 16 -1 19 -3 4 -6 -2 -5 -13z"/>
<path d="M7446 8408 c3 -5 10 -6 15 -3 13 9 11 12 -6 12 -8 0 -12 -4 -9 -9z"/>
<path d="M6088 8373 c7 -3 16 -2 19 1 4 3 -2 6 -13 5 -11 0 -14 -3 -6 -6z"/>
<path d="M4550 8348 c0 -4 4 -8 9 -8 6 0 12 4 15 8 3 5 -1 9 -9 9 -8 0 -15 -4
-15 -9z"/>
<path d="M6923 8345 c0 -8 4 -12 9 -9 5 3 6 10 3 15 -9 13 -12 11 -12 -6z"/>
<path d="M7346 8347 c3 -10 9 -15 12 -12 3 3 0 11 -7 18 -10 9 -11 8 -5 -6z"/>
<path d="M3906 8333 c-6 -14 -5 -15 5 -6 7 7 10 15 7 18 -3 3 -9 -2 -12 -12z"/>
<path d="M6850 8306 c0 -2 7 -7 16 -10 8 -3 12 -2 9 4 -6 10 -25 14 -25 6z"/>
<path d="M7375 8300 c3 -5 11 -10 16 -10 6 0 7 5 4 10 -3 6 -11 10 -16 10 -6
0 -7 -4 -4 -10z"/>
<path d="M4738 8263 c6 -2 18 -2 25 0 6 3 1 5 -13 5 -14 0 -19 -2 -12 -5z"/>
<path d="M3926 8227 c3 -10 9 -15 12 -12 3 3 0 11 -7 18 -10 9 -11 8 -5 -6z"/>
<path d="M7400 8170 c8 -5 20 -10 25 -10 6 0 3 5 -5 10 -8 5 -19 10 -25 10 -5
0 -3 -5 5 -10z"/>
<path d="M7250 8101 c0 -5 7 -11 14 -14 10 -4 13 -1 9 9 -6 15 -23 19 -23 5z"/>
<path d="M7690 8071 c0 -6 4 -13 10 -16 6 -3 7 1 4 9 -7 18 -14 21 -14 7z"/>
<path d="M6910 8040 c-9 -6 -10 -10 -3 -10 6 0 15 5 18 10 8 12 4 12 -15 0z"/>
<path d="M4428 8023 c7 -3 16 -2 19 1 4 3 -2 6 -13 5 -11 0 -14 -3 -6 -6z"/>
<path d="M4719 7838 c-5 -18 -6 -38 -1 -34 7 8 12 36 6 36 -2 0 -4 -1 -5 -2z"/>
<path d="M4168 7623 c7 -3 16 -2 19 1 4 3 -2 6 -13 5 -11 0 -14 -3 -6 -6z"/>
<path d="M3611 7604 c0 -11 3 -14 6 -6 3 7 2 16 -1 19 -3 4 -6 -2 -5 -13z"/>
<path d="M6723 7451 c0 -11 5 -18 9 -15 4 3 5 11 1 19 -7 21 -12 19 -10 -4z"/>
<path d="M5796 7298 c3 -5 10 -6 15 -3 13 9 11 12 -6 12 -8 0 -12 -4 -9 -9z"/>
<path d="M5205 7220 c-4 -6 1 -7 11 -3 13 5 15 3 9 -7 -5 -9 -4 -11 4 -6 6 4
9 12 6 17 -8 12 -22 12 -30 -1z"/>
<path d="M5846 7213 c-6 -14 -5 -15 5 -6 7 7 10 15 7 18 -3 3 -9 -2 -12 -12z"/>
<path d="M7461 7104 c0 -11 3 -14 6 -6 3 7 2 16 -1 19 -3 4 -6 -2 -5 -13z"/>
<path d="M5410 7066 c0 -2 7 -7 16 -10 8 -3 12 -2 9 4 -6 10 -25 14 -25 6z"/>
<path d="M5895 7029 c-4 -6 -5 -12 -2 -15 2 -3 7 2 10 11 7 17 1 20 -8 4z"/>
<path d="M5389 6913 c-13 -16 -12 -17 4 -4 9 7 17 15 17 17 0 8 -8 3 -21 -13z"/>
<path d="M7851 6194 c0 -11 3 -14 6 -6 3 7 2 16 -1 19 -3 4 -6 -2 -5 -13z"/>
<path d="M6829 5958 c-7 -23 -4 -35 7 -35 9 0 11 4 4 12 -5 7 -7 15 -3 18 3 4
3 7 0 7 -4 0 -7 -1 -8 -2z"/>
<path d="M6775 5880 c-4 -6 -11 -7 -17 -4 -7 4 -8 2 -4 -5 6 -9 11 -9 22 0 14
11 18 19 10 19 -3 0 -8 -5 -11 -10z"/>
<path d="M5316 5592 c-3 -5 3 -17 13 -26 11 -10 22 -13 25 -8 3 5 -3 17 -13
26 -11 10 -22 13 -25 8z m25 -19 c13 -16 12 -17 -3 -4 -10 7 -18 15 -18 17 0
8 8 3 21 -13z"/>
<path d="M4010 5535 c-11 -13 -10 -14 4 -9 9 3 16 10 16 15 0 13 -6 11 -20 -6z"/>
<path d="M5523 5535 c0 -8 4 -12 9 -9 5 3 6 10 3 15 -9 13 -12 11 -12 -6z"/>
<path d="M3896 5498 c3 -5 10 -6 15 -3 13 9 11 12 -6 12 -8 0 -12 -4 -9 -9z"/>
<path d="M5424 5496 c1 -8 5 -18 8 -22 4 -3 5 1 4 10 -1 8 -5 18 -8 22 -4 3
-5 -1 -4 -10z"/>
<path d="M4061 5351 c-8 -5 -9 -11 -3 -15 5 -3 12 1 16 9 6 17 6 18 -13 6z"/>
<path d="M4240 5316 c0 -2 8 -10 18 -17 15 -13 16 -12 3 4 -13 16 -21 21 -21
13z"/>
<path d="M4216 5177 c3 -10 9 -15 12 -12 3 3 0 11 -7 18 -10 9 -11 8 -5 -6z"/>
<path d="M4460 5010 c-9 -6 -10 -10 -3 -10 6 0 15 5 18 10 8 12 4 12 -15 0z"/>
<path d="M4727 4979 c7 -7 15 -10 18 -7 3 3 -2 9 -12 12 -14 6 -15 5 -6 -5z"/>
<path d="M7688 3773 c7 -3 16 -2 19 1 4 3 -2 6 -13 5 -11 0 -14 -3 -6 -6z"/>
<path d="M5287 3673 c-3 -5 6 -9 20 -10 19 -1 22 1 12 8 -17 11 -26 11 -32 2z"/>
<path d="M5415 3581 c-3 -5 -2 -12 3 -15 5 -3 9 1 9 9 0 17 -3 19 -12 6z"/>
<path d="M7767 3549 c7 -7 15 -10 18 -7 3 3 -2 9 -12 12 -14 6 -15 5 -6 -5z"/>
<path d="M7810 3546 c0 -2 7 -7 16 -10 8 -3 12 -2 9 4 -6 10 -25 14 -25 6z"/>
<path d="M3696 3513 c-6 -14 -5 -15 5 -6 7 7 10 15 7 18 -3 3 -9 -2 -12 -12z"/>
<path d="M5509 3478 c-5 -9 -5 -48 -1 -43 6 6 11 45 5 45 -2 0 -4 -1 -4 -2z"/>
<path d="M2745 3280 c3 -5 8 -10 11 -10 2 0 4 5 4 10 0 6 -5 10 -11 10 -5 0
-7 -4 -4 -10z"/>
<path d="M2783 3275 c0 -7 6 -11 14 -8 7 3 13 6 13 8 0 2 -6 5 -13 8 -8 3 -14
-1 -14 -8z"/>
<path d="M4367 3263 c-4 -3 -7 -11 -7 -17 0 -6 5 -5 12 2 6 6 9 14 7 17 -3 3
-9 2 -12 -2z"/>
<path d="M5736 3153 c-6 -14 -5 -15 5 -6 7 7 10 15 7 18 -3 3 -9 -2 -12 -12z"/>
<path d="M1762 2907 c-8 -10 -6 -13 11 -14 12 0 16 1 9 4 -6 3 -10 9 -6 14 8
14 -2 11 -14 -4z"/>
<path d="M9735 2910 c3 -5 8 -10 11 -10 2 0 4 5 4 10 0 6 -5 10 -11 10 -5 0
-7 -4 -4 -10z"/>
<path d="M9700 2906 c0 -4 7 -14 15 -22 8 -9 15 -11 15 -6 0 5 -7 15 -15 22
-8 7 -15 9 -15 6z"/>
<path d="M2286 2868 c3 -5 10 -6 15 -3 13 9 11 12 -6 12 -8 0 -12 -4 -9 -9z"/>
<path d="M4971 2734 c0 -11 3 -14 6 -6 3 7 2 16 -1 19 -3 4 -6 -2 -5 -13z"/>
<path d="M2405 2709 c-4 -6 -5 -12 -2 -15 2 -3 7 2 10 11 7 17 1 20 -8 4z"/>
<path d="M3826 2665 c-3 -9 -6 -22 -5 -28 0 -7 5 -1 10 12 5 13 8 26 5 28 -2
2 -6 -3 -10 -12z"/>
<path d="M1866 2613 c-6 -14 -5 -15 5 -6 7 7 10 15 7 18 -3 3 -9 -2 -12 -12z"/>
<path d="M2495 2578 c1 -13 6 -21 11 -19 10 3 7 21 -5 34 -4 4 -7 -3 -6 -15z"/>
<path d="M3391 2574 c0 -11 3 -14 6 -6 3 7 2 16 -1 19 -3 4 -6 -2 -5 -13z"/>
<path d="M6316 2542 c-3 -5 1 -9 9 -9 8 0 12 4 9 9 -3 4 -7 8 -9 8 -2 0 -6 -4
-9 -8z"/>
<path d="M8998 2463 c7 -3 16 -2 19 1 4 3 -2 6 -13 5 -11 0 -14 -3 -6 -6z"/>
<path d="M3772 2380 c0 -14 2 -19 5 -12 2 6 2 18 0 25 -3 6 -5 1 -5 -13z"/>
<path d="M6290 1665 c-19 -22 -8 -50 21 -53 33 -4 49 36 22 56 -22 16 -28 15
-43 -3z"/>
<path d="M3377 1663 c-4 -3 -7 -116 -7 -250 0 -206 2 -243 15 -243 7 0 18 7
23 15 7 14 14 13 57 -6 84 -37 158 -11 191 68 21 49 18 190 -4 233 -33 63
-107 83 -199 55 -22 -7 -23 -5 -23 64 0 68 -1 71 -23 71 -13 0 -27 -3 -30 -7z
m201 -176 c60 -49 54 -234 -9 -267 -27 -15 -91 -15 -119 0 -19 10 -20 18 -18
138 l3 127 35 12 c39 14 85 10 108 -10z"/>
<path d="M5842 1645 c-11 -14 -23 -43 -27 -65 -5 -30 -11 -40 -26 -40 -10 0
-19 -7 -19 -15 0 -8 9 -15 20 -15 19 0 20 -7 20 -170 l0 -170 30 0 30 0 0 170
0 170 40 0 c29 0 40 4 40 15 0 11 -11 15 -40 15 -39 0 -40 1 -40 34 0 41 14
54 65 58 28 2 41 8 43 21 3 15 -5 17 -57 17 -52 0 -62 -3 -79 -25z"/>
<path d="M7507 1663 c-4 -3 -7 -35 -7 -71 0 -62 -1 -64 -22 -57 -143 43 -219
-16 -222 -174 -1 -102 22 -163 71 -186 45 -22 93 -15 138 20 41 31 41 31 49 0
4 -16 13 -25 26 -25 19 0 20 7 20 250 l0 250 -23 0 c-13 0 -27 -3 -30 -7z
m-44 -164 l37 -10 0 -113 c0 -106 -1 -114 -24 -135 -29 -27 -83 -41 -114 -30
-31 12 -52 67 -52 136 0 138 45 182 153 152z"/>
<path d="M7700 1420 l0 -250 25 0 25 0 0 250 0 250 -25 0 -25 0 0 -250z"/>
<path d="M3830 1532 c-49 -24 -72 -71 -78 -156 -8 -133 30 -198 125 -212 64
-9 121 11 150 55 28 42 29 61 3 61 -13 0 -24 -10 -30 -24 -12 -33 -42 -48 -96
-49 -52 0 -80 20 -94 72 -20 74 -25 71 121 71 l130 0 -6 48 c-4 26 -15 62 -24
81 -32 65 -128 90 -201 53z m115 -32 c15 -6 32 -24 40 -45 28 -65 26 -66 -82
-63 l-98 3 3 25 c10 69 71 105 137 80z"/>
<path d="M4410 1543 c-57 -21 -90 -90 -90 -190 0 -121 41 -180 131 -190 81 -9
145 28 164 95 5 19 3 22 -19 22 -15 0 -26 -6 -26 -13 0 -63 -142 -84 -178 -27
-7 11 -15 41 -19 65 l-6 45 127 0 126 0 0 49 c0 59 -30 108 -80 133 -34 17
-99 22 -130 11z m105 -43 c24 -9 37 -31 51 -85 l6 -25 -101 0 c-56 0 -101 3
-101 8 0 4 5 24 11 45 15 55 74 80 134 57z"/>
<path d="M4764 1531 c-44 -27 -66 -88 -66 -183 -1 -128 47 -183 158 -183 55 0
67 4 89 25 14 14 29 40 34 58 9 30 8 32 -15 32 -17 0 -24 -6 -24 -20 0 -27
-41 -51 -89 -52 -70 -1 -101 45 -100 144 0 93 16 129 62 147 55 21 115 2 124
-40 6 -30 11 -33 37 -23 15 6 14 19 -6 61 -25 51 -144 71 -204 34z"/>
<path d="M5145 1537 c-64 -30 -87 -79 -87 -187 -1 -128 48 -185 157 -185 110
0 158 60 158 197 0 85 -17 125 -65 161 -34 26 -121 33 -163 14z m119 -38 c39
-18 60 -84 54 -169 -6 -79 -22 -105 -72 -118 -83 -22 -128 22 -134 127 -5 90
9 134 51 155 38 19 67 20 101 5z"/>
<path d="M6145 1535 c-16 -9 -37 -24 -47 -35 -22 -26 -25 -25 -33 10 -5 21
-13 30 -26 30 -18 0 -19 -9 -19 -185 l0 -185 30 0 30 0 0 134 0 134 30 26 c17
14 46 28 65 32 28 5 35 11 35 30 0 28 -21 31 -65 9z"/>
<path d="M6522 1530 c-48 -29 -72 -89 -72 -178 0 -119 37 -174 127 -188 83
-12 144 20 163 85 8 29 7 31 -16 31 -17 0 -24 -6 -24 -20 0 -28 -42 -52 -95
-52 -60 -1 -91 28 -100 95 l-7 47 131 0 131 0 -6 48 c-4 26 -13 62 -22 80 -30
66 -142 93 -210 52z m123 -30 c15 -6 32 -24 40 -45 28 -65 26 -66 -82 -63
l-98 3 3 25 c10 69 71 105 137 80z"/>
<path d="M6951 1529 c-40 -20 -44 -21 -53 -6 -5 10 -16 17 -23 17 -13 0 -15
-30 -15 -185 l0 -185 25 0 24 0 3 148 3 147 45 23 c51 25 88 28 116 8 17 -13
19 -30 22 -170 l3 -156 25 0 24 0 0 159 c0 153 -1 161 -23 187 -33 38 -114 44
-176 13z"/>
<path d="M6290 1355 l0 -185 25 0 25 0 0 185 0 185 -25 0 -25 0 0 -185z"/>
<path d="M7840 1533 c0 -5 30 -89 67 -187 l67 -180 -26 -73 c-25 -71 -26 -72
-6 -79 11 -3 21 -4 23 -2 2 2 37 96 193 516 3 10 -3 13 -23 10 -26 -3 -31 -12
-79 -152 l-52 -149 -39 104 c-21 57 -44 118 -50 134 -7 17 -15 38 -19 48 -5
17 -56 25 -56 10z"/>
<path d="M5460 1380 c0 -19 7 -20 115 -20 108 0 115 1 115 20 0 19 -7 20 -115
20 -108 0 -115 -1 -115 -20z"/>
</g>
</svg>
