<?xml version="1.0" standalone="no"?>
<!DOCTYPE svg PUBLIC "-//W3C//DTD SVG 20010904//EN"
 "http://www.w3.org/TR/2001/REC-SVG-20010904/DTD/svg10.dtd">
<svg version="1.0" xmlns="http://www.w3.org/2000/svg"
 width="1164.000000pt" height="294.000000pt" viewBox="0 0 1164.000000 294.000000"
 preserveAspectRatio="xMidYMid meet">

<g transform="translate(0.000000,294.000000) scale(0.100000,-0.100000)"
fill="#000000" stroke="none">
<path d="M2626 2463 c-33 -8 -111 -60 -108 -72 1 -7 -1 -10 -6 -7 -25 15 -62
-57 -62 -123 0 -61 9 -89 22 -69 7 9 8 7 4 -7 -7 -25 0 -34 44 -66 41 -30 102
-53 180 -69 30 -6 69 -17 85 -26 19 -10 31 -11 33 -5 4 13 22 4 22 -10 0 -6
-5 -7 -11 -3 -8 4 -9 -1 -4 -17 10 -33 10 -31 2 -55 -14 -40 -115 -63 -172
-40 -19 8 -42 13 -49 10 -8 -3 -17 -1 -21 5 -3 7 0 8 9 5 13 -5 13 0 -2 35
l-17 41 -74 0 -74 0 7 -41 c8 -53 34 -102 48 -93 6 4 8 3 5 -3 -4 -6 4 -20 16
-31 36 -34 109 -61 185 -68 59 -6 76 -4 98 11 14 9 23 12 20 6 -23 -37 117 31
148 72 13 18 29 52 36 75 15 59 -10 142 -54 178 -17 13 -36 28 -42 33 -16 13
-89 36 -163 51 -109 23 -151 81 -96 135 46 47 177 26 191 -30 6 -24 10 -25 80
-25 l74 0 -3 35 c-7 62 -49 110 -132 150 -39 19 -64 24 -125 23 -41 0 -83 -3
-94 -5z m239 -43 c3 -5 1 -10 -4 -10 -6 0 -11 5 -11 10 0 6 2 10 4 10 3 0 8
-4 11 -10z m-310 -19 c-3 -6 -11 -11 -16 -11 -5 0 -4 6 3 14 14 16 24 13 13
-3z m115 -37 c0 -2 -7 -4 -15 -4 -8 0 -15 4 -15 10 0 5 7 7 15 4 8 -4 15 -8
15 -10z m180 0 c0 -2 -9 -4 -20 -4 -11 0 -20 4 -20 9 0 5 9 7 20 4 11 -3 20
-7 20 -9z m-53 0 c-3 -3 -12 -4 -19 -1 -8 3 -5 6 6 6 11 1 17 -2 13 -5z m8
-24 c3 -6 -1 -7 -9 -4 -18 7 -21 14 -7 14 6 0 13 -4 16 -10z m95 -35 c0 -5 -5
-3 -10 5 -5 8 -10 20 -10 25 0 6 5 3 10 -5 5 -8 10 -19 10 -25z m-429 2 c-10
-9 -11 -8 -5 6 3 10 9 15 12 12 3 -3 0 -11 -7 -18z m396 -9 c-3 -7 -5 -2 -5
12 0 14 2 19 5 13 2 -7 2 -19 0 -25z m80 10 c-3 -8 -6 -5 -6 6 -1 11 2 17 5
13 3 -3 4 -12 1 -19z m-214 -145 c-7 -2 -21 -2 -30 0 -10 3 -4 5 12 5 17 0 24
-2 18 -5z m-153 -38 c0 -7 -30 -13 -34 -7 -3 4 4 9 15 9 10 1 19 0 19 -2z m57
-21 c-3 -3 -12 -4 -19 -1 -8 3 -5 6 6 6 11 1 17 -2 13 -5z m268 -42 c-3 -3
-11 0 -18 7 -9 10 -8 11 6 5 10 -3 15 -9 12 -12z m62 -174 c-3 -8 -6 -5 -6 6
-1 11 2 17 5 13 3 -3 4 -12 1 -19z m-489 -13 c-3 -3 -9 2 -12 12 -6 14 -5 15
5 6 7 -7 10 -15 7 -18z m74 -44 c3 -19 0 -27 -7 -24 -7 2 -10 15 -7 29 6 31 9
30 14 -5z m398 25 c0 -3 -4 -8 -10 -11 -5 -3 -10 -1 -10 4 0 6 5 11 10 11 6 0
10 -2 10 -4z m-153 -22 c-3 -3 -12 -4 -19 -1 -8 3 -5 6 6 6 11 1 17 -2 13 -5z
m113 -13 c0 -5 -7 -12 -16 -15 -14 -5 -15 -4 -4 9 14 17 20 19 20 6z"/>
<path d="M5619 2461 c-59 -19 -123 -66 -113 -82 3 -5 -1 -6 -8 -4 -16 6 -52
-60 -43 -76 4 -5 1 -9 -4 -9 -6 0 -11 -16 -11 -35 0 -19 5 -35 11 -35 5 0 7
-5 4 -10 -10 -16 35 -82 51 -76 7 3 16 0 20 -6 5 -7 2 -8 -6 -3 -8 5 -11 4 -7
-2 11 -18 92 -51 163 -68 38 -8 78 -17 89 -20 32 -7 65 -43 65 -71 0 -16 -12
-37 -29 -53 -26 -24 -36 -27 -86 -24 -31 2 -69 10 -85 18 -15 8 -31 11 -34 7
-4 -3 -4 0 -1 9 3 8 -3 24 -14 36 -11 11 -17 24 -14 27 4 3 -26 6 -65 6 -72 0
-72 0 -72 -27 0 -40 11 -74 21 -67 5 3 7 -1 4 -8 -6 -15 27 -55 71 -86 39 -27
133 -52 194 -52 86 0 227 56 216 86 -7 18 3 44 17 44 7 0 7 -4 -1 -12 -14 -14
-16 -28 -3 -28 15 0 41 78 41 126 0 53 -24 106 -44 98 -8 -3 -17 -1 -21 5 -3
7 0 8 9 5 24 -9 19 4 -11 31 -16 14 -34 22 -41 20 -7 -3 -11 -1 -7 4 6 10 -61
34 -143 50 -29 6 -67 19 -85 28 -18 9 -35 16 -38 16 -3 -1 -2 19 2 44 7 35 6
49 -3 55 -8 5 -2 6 13 2 15 -3 30 -1 33 5 4 6 30 11 57 11 51 0 88 -13 101
-36 5 -6 16 -11 25 -10 10 2 12 1 6 -1 -7 -3 -13 -11 -13 -19 0 -11 17 -14 76
-14 l75 0 -4 28 c-12 66 -40 106 -107 147 -38 24 -57 28 -135 31 -49 2 -102 0
-116 -5z m252 -48 c13 -17 13 -17 -6 -3 -11 8 -22 16 -24 17 -2 2 0 3 6 3 6 0
17 -8 24 -17z m-301 -13 c8 -5 11 -10 5 -10 -5 0 -17 5 -25 10 -8 5 -10 10 -5
10 6 0 17 -5 25 -10z m183 -47 c-7 -2 -21 -2 -30 0 -10 3 -4 5 12 5 17 0 24
-2 18 -5z m77 -23 c0 -5 -2 -10 -4 -10 -3 0 -8 5 -11 10 -3 6 -1 10 4 10 6 0
11 -4 11 -10z m-341 -142 c1 6 6 12 12 12 8 0 8 -5 -1 -15 -15 -18 -30 -11
-29 13 0 14 2 13 9 -3 5 -11 9 -14 9 -7z m146 -18 c3 -5 2 -10 -4 -10 -5 0
-13 5 -16 10 -3 6 -2 10 4 10 5 0 13 -4 16 -10z m104 -4 c-2 -2 -17 -6 -34
-10 -22 -5 -26 -4 -15 4 14 9 59 15 49 6z m126 -94 c-3 -3 -11 0 -18 7 -9 10
-8 11 6 5 10 -3 15 -9 12 -12z m-382 -187 c-3 -9 -8 -14 -10 -11 -3 3 -2 9 2
15 9 16 15 13 8 -4z m450 0 c-3 -9 -8 -14 -10 -11 -3 3 -2 9 2 15 9 16 15 13
8 -4z m-413 1 c0 -3 -4 -8 -10 -11 -5 -3 -10 -1 -10 4 0 6 5 11 10 11 6 0 10
-2 10 -4z m163 -23 c-7 -2 -19 -2 -25 0 -7 3 -2 5 12 5 14 0 19 -2 13 -5z
m187 -63 c-8 -5 -22 -9 -30 -9 -10 0 -8 3 5 9 27 12 43 12 25 0z m-266 -12
c-3 -4 -11 -5 -19 -1 -21 7 -19 12 4 10 11 0 18 -5 15 -9z m103 -14 c-3 -3
-12 -4 -19 -1 -8 3 -5 6 6 6 11 1 17 -2 13 -5z"/>
<path d="M1228 2454 c-3 -3 -19 -7 -34 -9 -75 -9 -242 -95 -237 -122 1 -6 -5
-10 -14 -9 -9 0 -38 -26 -65 -59 -39 -47 -48 -65 -43 -85 4 -16 2 -20 -3 -12
-14 21 -28 -4 -53 -93 -18 -67 -21 -97 -17 -186 l5 -105 -26 -12 c-100 -44
-197 -165 -245 -305 -19 -56 -22 -207 -5 -207 6 0 9 -7 6 -14 -9 -23 39 -133
83 -192 49 -65 125 -124 205 -159 80 -36 96 -38 275 -41 l155 -3 3 -136 3
-135 85 0 85 0 -3 134 c-2 97 0 137 10 145 9 9 12 9 12 -1 0 -9 3 -9 10 2 6
10 10 11 10 3 0 -25 273 -11 315 15 6 4 18 8 28 9 30 5 77 33 74 44 -1 7 5 14
13 16 13 4 13 3 0 -6 -8 -6 -10 -11 -4 -11 20 0 105 71 98 82 -4 7 -2 8 5 4
12 -8 24 2 64 55 18 23 25 43 21 55 -5 15 -4 16 5 4 8 -12 15 -3 35 41 53 120
59 272 16 394 -22 64 -68 141 -77 131 -4 -3 1 -14 10 -24 10 -10 17 -23 17
-28 -1 -10 -25 20 -42 50 -7 13 -7 16 1 12 6 -4 11 -4 11 1 0 14 -43 58 -104
105 l-59 46 -3 84 c-2 79 -18 144 -51 216 -12 25 -18 30 -25 20 -6 -9 -7 -6
-3 9 4 16 -7 36 -46 83 -30 37 -56 59 -64 56 -8 -3 -12 0 -9 7 7 19 -110 84
-202 112 -75 23 -211 35 -226 19z m229 -30 c-3 -3 -12 -4 -19 -1 -8 3 -5 6 6
6 11 1 17 -2 13 -5z m-27 -154 c81 -22 170 -101 219 -195 31 -60 38 -167 16
-254 -9 -40 -16 -73 -14 -74 2 -2 29 -11 60 -21 168 -55 271 -236 239 -418 -6
-34 -18 -73 -26 -86 -8 -12 -12 -28 -8 -34 4 -6 3 -9 -2 -6 -5 3 -22 -12 -37
-35 -20 -28 -24 -38 -12 -34 10 4 14 3 10 -4 -4 -5 -15 -7 -26 -4 -10 4 -19 3
-19 -2 0 -5 -18 -19 -39 -33 -22 -13 -37 -28 -34 -34 3 -5 1 -6 -5 -2 -9 6
-72 -5 -122 -20 -17 -6 -672 -6 -691 0 -113 31 -131 40 -178 82 -73 66 -103
135 -103 239 -1 69 3 89 28 139 18 36 47 74 76 99 26 22 46 43 43 46 -2 4 6 7
18 6 13 0 50 -28 92 -70 73 -73 153 -120 289 -170 79 -29 80 -29 70 -13 -4 6
3 4 17 -5 13 -9 32 -17 42 -17 14 0 10 -9 -20 -41 -61 -65 -61 -64 19 -84 l71
-17 24 28 c13 15 21 34 18 41 -2 8 -1 12 4 9 9 -6 78 83 88 112 4 15 3 15 -6
2 -6 -8 -11 -10 -11 -5 0 6 4 15 9 20 14 15 -29 184 -49 189 -8 3 -40 6 -70 8
l-55 3 3 -45 c2 -25 8 -46 13 -48 12 -5 12 -29 0 -37 -14 -8 -119 34 -189 77
-65 39 -77 45 -67 28 3 -6 -1 -7 -10 -3 -12 4 -13 8 -5 13 17 11 -4 22 -27 14
-12 -4 -14 -3 -6 3 10 7 2 19 -27 47 -22 21 -40 42 -40 48 0 6 -7 8 -14 5 -10
-4 -13 -1 -10 8 3 7 -5 33 -18 57 -19 36 -22 58 -22 138 0 81 4 103 26 152 29
63 105 145 159 174 91 48 191 56 309 24z m-502 6 c-7 -8 -15 -12 -17 -11 -5 6
10 25 20 25 5 0 4 -6 -3 -14z m549 8 c-3 -3 -12 -4 -19 -1 -8 3 -5 6 6 6 11 1
17 -2 13 -5z m-370 -10 c-3 -3 -12 -4 -19 -1 -8 3 -5 6 6 6 11 1 17 -2 13 -5z
m-157 -8 c0 -2 -8 -10 -17 -17 -16 -13 -17 -12 -4 4 13 16 21 21 21 13z m761
-13 c13 -16 12 -17 -3 -4 -10 7 -18 15 -18 17 0 8 8 3 21 -13z m-736 -73 c3
-5 1 -10 -4 -10 -6 0 -11 5 -11 10 0 6 2 10 4 10 3 0 8 -4 11 -10z m-188 -162
c-3 -8 -6 -5 -6 6 -1 11 2 17 5 13 3 -3 4 -12 1 -19z m140 -10 c-3 -8 -6 -5
-6 6 -1 11 2 17 5 13 3 -3 4 -12 1 -19z m-40 -240 c-3 -8 -6 -5 -6 6 -1 11 2
17 5 13 3 -3 4 -12 1 -19z m1058 -8 c10 -11 16 -20 13 -20 -3 0 -13 9 -23 20
-10 11 -16 20 -13 20 3 0 13 -9 23 -20z m-60 -8 c-3 -3 -11 0 -18 7 -9 10 -8
11 6 5 10 -3 15 -9 12 -12z m-890 -62 c3 -5 1 -10 -4 -10 -6 0 -11 5 -11 10 0
6 2 10 4 10 3 0 8 -4 11 -10z m-122 -45 c-3 -9 -8 -14 -10 -11 -3 3 -2 9 2 15
9 16 15 13 8 -4z m1028 -22 c13 -16 12 -17 -3 -4 -17 13 -22 21 -14 21 2 0 10
-8 17 -17z m152 -18 c-3 -9 -8 -14 -10 -11 -3 3 -2 9 2 15 9 16 15 13 8 -4z
m-600 -12 c-7 -2 -21 -2 -30 0 -10 3 -4 5 12 5 17 0 24 -2 18 -5z m-720 -28
c-3 -9 -8 -14 -10 -11 -3 3 -2 9 2 15 9 16 15 13 8 -4z m442 -15 c3 -6 -1 -7
-9 -4 -18 7 -21 14 -7 14 6 0 13 -4 16 -10z m-635 -40 c-6 -11 -13 -20 -16
-20 -2 0 0 9 6 20 6 11 13 20 16 20 2 0 0 -9 -6 -20z m957 -2 c-3 -8 -6 -5 -6
6 -1 11 2 17 5 13 3 -3 4 -12 1 -19z m-272 2 c-3 -5 -12 -10 -18 -10 -7 0 -6
4 3 10 19 12 23 12 15 0z m732 -22 c-3 -7 -5 -2 -5 12 0 14 2 19 5 13 2 -7 2
-19 0 -25z m-923 3 c4 -5 -3 -7 -14 -4 -23 6 -26 13 -6 13 8 0 17 -4 20 -9z
m281 -11 c3 -6 -1 -7 -9 -4 -18 7 -21 14 -7 14 6 0 13 -4 16 -10z m52 -16 c-3
-3 -12 -4 -19 -1 -8 3 -5 6 6 6 11 1 17 -2 13 -5z m730 -36 c-3 -7 -5 -2 -5
12 0 14 2 19 5 13 2 -7 2 -19 0 -25z m-120 0 c-3 -8 -6 -5 -6 6 -1 11 2 17 5
13 3 -3 4 -12 1 -19z m-470 -30 c-3 -8 -6 -5 -6 6 -1 11 2 17 5 13 3 -3 4 -12
1 -19z m-51 -78 c0 -12 -4 -16 -9 -11 -5 5 -6 14 -3 20 10 15 12 14 12 -9z
m651 -52 c-3 -8 -6 -5 -6 6 -1 11 2 17 5 13 3 -3 4 -12 1 -19z m-1569 -43 c-3
-3 -9 2 -12 12 -6 14 -5 15 5 6 7 -7 10 -15 7 -18z m789 19 c-3 -3 -12 -4 -19
-1 -8 3 -5 6 6 6 11 1 17 -2 13 -5z m-670 -36 c-3 -8 -6 -5 -6 6 -1 11 2 17 5
13 3 -3 4 -12 1 -19z m-128 -33 c0 -5 -4 -3 -9 5 -5 8 -9 22 -9 30 0 16 17
-16 18 -35z m1443 23 c-7 -7 -12 -8 -12 -2 0 14 12 26 19 19 2 -3 -1 -11 -7
-17z m76 -38 c-7 -10 -14 -17 -17 -15 -4 4 18 35 25 35 2 0 -1 -9 -8 -20z m25
-5 c-3 -9 -8 -14 -10 -11 -3 3 -2 9 2 15 9 16 15 13 8 -4z m-54 -77 c-5 -10
-11 -18 -12 -18 -2 0 -3 8 -3 18 0 10 6 19 13 19 8 0 9 -6 2 -19z m-1404 2 c3
-5 1 -10 -4 -10 -6 0 -11 5 -11 10 0 6 2 10 4 10 3 0 8 -4 11 -10z m1200 -20
c-3 -5 -12 -10 -18 -10 -7 0 -6 4 3 10 19 12 23 12 15 0z m-1180 -50 c10 -11
16 -20 13 -20 -3 0 -13 9 -23 20 -10 11 -16 20 -13 20 3 0 13 -9 23 -20z m202
-96 c-3 -3 -12 -4 -19 -1 -8 3 -5 6 6 6 11 1 17 -2 13 -5z"/>
<path d="M3060 2458 c0 -2 14 -48 30 -103 16 -55 30 -108 30 -118 0 -11 4 -15
12 -11 6 4 8 3 5 -3 -3 -5 3 -38 13 -74 104 -359 107 -369 124 -381 19 -13
127 -6 142 9 7 8 19 33 25 56 22 81 37 132 52 178 l14 47 -23 -3 c-13 -1 -21
2 -18 7 3 5 12 7 20 4 17 -7 26 7 44 74 8 30 19 54 24 53 6 -1 15 -24 22 -50
7 -26 26 -89 42 -138 16 -50 38 -123 48 -163 l18 -71 41 -6 c22 -4 58 -5 79
-3 l40 3 33 110 c18 61 49 166 68 235 19 69 47 163 61 210 15 47 30 97 35 113
l8 27 -88 0 -89 0 -21 -87 c-11 -49 -35 -151 -52 -228 -17 -77 -35 -144 -39
-149 -9 -9 -35 73 -65 199 -9 39 -19 77 -22 85 -4 8 -7 17 -7 20 -1 3 -10 40
-20 83 l-19 77 -63 0 c-45 0 -64 -4 -64 -12 0 -10 -2 -10 -9 0 -5 9 -12 -2
-21 -35 -7 -26 -16 -61 -21 -78 -31 -107 -69 -254 -68 -262 1 -4 -3 -21 -9
-36 -7 -16 -12 -33 -12 -38 0 -5 -4 -9 -9 -9 -8 0 -18 26 -28 79 -3 21 -21
103 -80 369 -4 18 -8 20 -14 10 -7 -10 -9 -10 -9 0 0 8 -20 12 -64 12 -42 0
-66 -4 -69 -12 -4 -10 -6 -10 -6 0 -1 6 -5 12 -11 12 -5 0 -10 -1 -10 -2z
m574 -74 c3 -8 2 -12 -4 -9 -6 3 -10 -2 -10 -11 0 -10 -3 -15 -6 -11 -6 5 4
47 11 47 1 0 6 -7 9 -16z m281 -4 c-3 -5 -12 -10 -18 -10 -7 0 -6 4 3 10 19
12 23 12 15 0z m-668 -42 c-3 -8 -6 -5 -6 6 -1 11 2 17 5 13 3 -3 4 -12 1 -19z
m180 -160 c-3 -8 -6 -5 -6 6 -1 11 2 17 5 13 3 -3 4 -12 1 -19z m-240 -20 c-3
-8 -6 -5 -6 6 -1 11 2 17 5 13 3 -3 4 -12 1 -19z m-7 -33 c0 -5 -5 -3 -10 5
-5 8 -10 20 -10 25 0 6 5 3 10 -5 5 -8 10 -19 10 -25z m237 3 c-3 -7 -5 -2 -5
12 0 14 2 19 5 13 2 -7 2 -19 0 -25z m400 -10 c-3 -7 -5 -2 -5 12 0 14 2 19 5
13 2 -7 2 -19 0 -25z m-630 -30 c-3 -8 -6 -5 -6 6 -1 11 2 17 5 13 3 -3 4 -12
1 -19z m677 -106 c3 -5 -1 -9 -9 -9 -8 0 -12 4 -9 9 3 4 7 8 9 8 2 0 6 -4 9
-8z m4 -97 c-3 -3 -9 2 -12 12 -6 14 -5 15 5 6 7 -7 10 -15 7 -18z m-588 -100
c0 -5 -5 -3 -10 5 -5 8 -10 20 -10 25 0 6 5 3 10 -5 5 -8 10 -19 10 -25z m140
25 c0 -5 -5 -10 -11 -10 -5 0 -7 5 -4 10 3 6 8 10 11 10 2 0 4 -4 4 -10z m333
-27 c-7 -2 -19 -2 -25 0 -7 3 -2 5 12 5 14 0 19 -2 13 -5z"/>
<path d="M4207 2293 c-31 -93 -72 -215 -92 -273 -20 -58 -45 -132 -55 -165
-10 -33 -21 -67 -24 -75 -5 -13 4 -16 51 -18 88 -3 111 4 122 41 30 97 44 127
55 118 6 -5 62 -9 125 -10 62 0 114 -1 115 -3 1 -2 7 -23 13 -48 27 -105 22
-101 118 -99 76 1 85 3 80 18 -4 9 -16 42 -27 74 -11 31 -24 55 -28 52 -4 -3
-6 3 -3 13 2 10 -5 43 -17 75 -12 31 -21 58 -21 59 0 2 -18 55 -40 118 -22 63
-52 154 -67 202 l-27 88 -111 0 -111 0 -56 -167z m214 -130 c25 -73 40 -133
34 -134 -28 -2 -160 3 -165 6 -3 2 11 57 32 122 21 64 36 123 34 129 -2 6 2
11 9 11 7 0 31 -56 56 -134z m-215 25 c-13 -19 -16 -19 -16 -5 0 9 5 17 11 17
6 0 8 9 4 23 -5 19 -4 20 5 4 8 -13 7 -22 -4 -39z m105 -225 c13 -16 12 -17
-3 -4 -17 13 -22 21 -14 21 2 0 10 -8 17 -17z m174 -23 c-3 -6 -40 -9 -83 -8
l-77 2 80 6 c44 3 81 7 83 8 2 1 0 -2 -3 -8z m67 -122 c-8 -8 -9 -4 -5 13 4
13 8 18 11 10 2 -7 -1 -18 -6 -23z m132 6 c3 -8 2 -12 -4 -9 -6 3 -10 10 -10
16 0 14 7 11 14 -7z m-486 -19 c-3 -3 -9 2 -12 12 -6 14 -5 15 5 6 7 -7 10
-15 7 -18z m-18 -15 c0 -5 -5 -10 -11 -10 -5 0 -7 5 -4 10 3 6 8 10 11 10 2 0
4 -4 4 -10z"/>
<path d="M4812 2113 l3 -348 75 0 75 0 3 106 3 107 97 4 c72 3 110 10 147 27
39 17 46 24 35 31 -12 8 -9 9 9 8 51 -6 104 127 87 217 -4 19 -11 33 -16 30
-4 -3 -6 3 -4 12 3 10 -2 27 -11 38 -15 19 -15 19 -9 -6 3 -15 1 -30 -4 -33
-6 -4 -8 3 -4 16 4 15 2 19 -7 13 -10 -6 -11 -3 -1 14 14 26 -4 55 -28 46 -8
-3 -24 1 -36 9 -12 7 -31 16 -41 19 -19 4 -19 5 1 6 11 0 29 -6 40 -14 22 -17
34 -19 34 -6 0 5 -22 18 -49 30 -44 19 -68 21 -225 21 l-176 0 2 -347z m243
229 c-3 -3 -11 0 -18 7 -9 10 -8 11 6 5 10 -3 15 -9 12 -12z m67 -20 c37 -15
59 -52 60 -100 1 -78 -36 -109 -132 -112 -36 -1 -69 -2 -75 -1 -11 1 -14 213
-3 221 11 9 122 3 150 -8z m171 -197 c-3 -9 -8 -14 -10 -11 -3 3 -2 9 2 15 9
16 15 13 8 -4z m13 -23 c-17 -16 -18 -16 -5 5 7 12 15 20 18 17 3 -2 -3 -12
-13 -22z m-76 -72 c0 -5 -5 -10 -11 -10 -5 0 -7 5 -4 10 3 6 8 10 11 10 2 0 4
-4 4 -10z m-33 -16 c-3 -3 -12 -4 -19 -1 -8 3 -5 6 6 6 11 1 17 -2 13 -5z"/>
<path d="M6072 2398 l3 -63 105 -3 105 -3 -2 -279 -3 -279 43 -6 c23 -4 58 -5
77 -3 l35 3 5 284 5 284 90 -2 c123 -3 125 -2 125 70 l0 59 -295 0 -296 0 3
-62z m248 -82 c0 -3 -4 -8 -10 -11 -5 -3 -10 -1 -10 4 0 6 5 11 10 11 6 0 10
-2 10 -4z m110 -516 c0 -13 -6 -20 -17 -19 -11 0 -13 3 -5 6 6 2 12 11 12 19
0 8 2 14 5 14 3 0 5 -9 5 -20z"/>
<path d="M6747 2413 c14 -23 29 -41 34 -38 5 4 6 0 4 -8 -6 -13 5 -37 36 -87
9 -14 38 -65 64 -113 26 -49 49 -86 52 -84 2 3 0 16 -7 29 -11 22 -10 22 4 4
9 -11 13 -28 10 -38 -3 -10 4 -33 15 -52 18 -29 21 -49 21 -147 l0 -114 78 0
77 0 2 123 c1 115 3 126 28 163 14 22 23 45 19 51 -4 6 -3 8 3 5 5 -3 20 15
32 41 12 26 43 82 68 125 25 42 43 84 40 92 -4 10 -1 12 11 8 9 -3 14 -3 10 1
-3 4 5 24 19 44 l25 37 -78 3 c-42 2 -83 1 -91 -2 -11 -5 -59 -91 -122 -221
-10 -22 -26 -49 -34 -60 -14 -18 -16 -16 -46 43 -17 35 -36 60 -41 57 -5 -3
-7 0 -4 8 3 8 -11 48 -31 88 -28 55 -39 69 -47 58 -7 -10 -8 -8 -3 9 6 22 5
22 -83 21 l-89 -2 24 -44z m568 -52 c3 -5 1 -12 -5 -16 -5 -3 -10 1 -10 9 0
18 6 21 15 7z m-370 -21 c3 -5 1 -10 -4 -10 -6 0 -11 5 -11 10 0 6 2 10 4 10
3 0 8 -4 11 -10z m282 -102 c-3 -8 -6 -5 -6 6 -1 11 2 17 5 13 3 -3 4 -12 1
-19z m-246 -11 c-10 -9 -11 -8 -5 6 3 10 9 15 12 12 3 -3 0 -11 -7 -18z m157
-112 c-3 -3 -9 2 -12 12 -6 14 -5 15 5 6 7 -7 10 -15 7 -18z m-128 -299 c0 -3
-4 -8 -10 -11 -5 -3 -10 -1 -10 4 0 6 5 11 10 11 6 0 10 -2 10 -4z"/>
<path d="M7480 2116 c0 -283 2 -345 14 -349 20 -8 409 -9 429 -1 13 5 17 19
17 64 l0 58 -42 0 c-24 0 -92 0 -153 1 l-110 1 3 285 3 285 -81 0 -80 0 0
-344z"/>
<path d="M8030 2116 c0 -297 2 -345 15 -350 8 -3 117 -4 243 -3 l227 2 3 57
c3 55 3 56 -27 63 -17 4 -77 6 -133 4 -57 -1 -116 -1 -133 0 l-30 1 1 73 c1
39 2 77 3 82 1 6 55 9 146 7 l145 -3 0 66 0 66 -146 -2 -147 -1 -1 76 -1 76
160 2 160 3 3 63 3 62 -246 0 -245 0 0 -344z m170 34 c0 -5 -2 -10 -4 -10 -3
0 -8 5 -11 10 -3 6 -1 10 4 10 6 0 11 -4 11 -10z m-25 -130 c3 -5 1 -10 -4
-10 -6 0 -11 5 -11 10 0 6 2 10 4 10 3 0 8 -4 11 -10z m325 -220 c0 -11 -4
-20 -9 -20 -5 0 -7 9 -4 20 3 11 7 20 9 20 2 0 4 -9 4 -20z m-363 -16 c-3 -3
-12 -4 -19 -1 -8 3 -5 6 6 6 11 1 17 -2 13 -5z"/>
<path d="M4764 1290 c-107 -23 -185 -84 -230 -183 -27 -57 -29 -71 -29 -177 0
-110 1 -118 33 -182 39 -80 93 -129 171 -159 80 -30 214 -24 287 14 60 30 109
83 135 144 34 80 31 83 -66 83 l-85 0 -14 -35 c-22 -53 -69 -77 -139 -72 -100
6 -150 76 -149 209 1 138 57 210 164 210 60 0 95 -21 121 -75 l19 -37 85 0 85
0 -7 38 c-17 94 -100 186 -193 212 -55 15 -141 20 -188 10z"/>
<path d="M5502 1290 c-105 -22 -194 -98 -233 -199 -31 -78 -33 -233 -4 -310
25 -68 92 -144 159 -179 46 -24 61 -27 156 -27 91 0 112 3 154 24 66 33 122
91 154 159 23 51 26 70 26 172 1 104 -2 120 -25 170 -37 79 -81 125 -152 160
-69 33 -163 45 -235 30z m162 -169 c48 -27 76 -92 76 -176 0 -103 -8 -130 -49
-177 -35 -38 -42 -42 -97 -46 -50 -3 -64 0 -93 20 -19 13 -44 38 -55 57 -25
42 -33 164 -16 225 14 51 61 104 99 112 14 3 31 7 36 9 17 6 69 -6 99 -24z"/>
<path d="M2440 935 l0 -355 203 0 c191 0 205 1 253 24 81 38 121 106 111 192
-8 73 -74 144 -132 144 -23 0 -18 17 8 24 52 14 97 79 97 141 0 82 -61 153
-151 173 -28 7 -126 12 -220 12 l-169 0 0 -355z m336 192 c20 -18 27 -32 26
-58 -1 -53 -29 -69 -118 -69 l-74 0 0 75 0 75 69 0 c59 0 74 -4 97 -23z m0
-253 c24 -6 54 -53 54 -83 0 -12 -11 -33 -25 -46 -22 -23 -32 -25 -110 -25
l-85 0 0 80 0 80 73 0 c39 0 81 -3 93 -6z"/>
<path d="M3090 935 l0 -355 250 0 251 0 -3 68 -3 67 -162 3 -163 2 0 70 0 70
150 0 150 0 0 70 0 70 -150 0 -151 0 3 73 3 72 163 3 163 2 -3 68 -3 67 -247
3 -248 2 0 -355z"/>
<path d="M3907 1283 c-4 -3 -7 -163 -7 -355 l0 -348 250 0 250 0 0 70 0 70
-160 0 -160 0 0 70 0 70 145 0 145 0 0 70 0 70 -145 0 -145 0 0 75 0 75 160 0
160 0 0 70 0 70 -243 0 c-134 0 -247 -3 -250 -7z"/>
<path d="M6480 935 l0 -355 85 0 85 0 0 140 0 139 143 3 142 3 3 68 3 67 -146
0 -146 0 3 73 3 72 158 3 158 3 -3 67 -3 67 -242 3 -243 2 0 -355z"/>
<path d="M7050 936 l0 -356 85 0 85 0 0 120 0 120 48 0 47 0 50 -100 c73 -145
64 -139 170 -141 50 -1 89 2 87 7 -2 5 -33 65 -69 133 l-66 123 31 25 c71 55
100 139 82 235 -14 74 -51 122 -119 155 -54 27 -62 28 -243 31 l-188 4 0 -356z
m348 180 c38 -37 37 -99 -1 -132 -24 -21 -38 -24 -103 -24 l-74 0 0 88 c0 49
3 92 8 96 4 5 38 6 76 3 57 -4 72 -9 94 -31z"/>
<path d="M7700 935 l0 -355 85 0 85 0 0 355 0 355 -85 0 -85 0 0 -355z"/>
<path d="M7980 935 l0 -355 245 0 245 0 0 70 0 70 -160 0 -160 0 0 70 0 70
150 0 150 0 0 70 0 70 -150 0 -150 0 0 75 0 75 163 0 162 0 -3 70 -4 70 -244
0 -244 0 0 -355z"/>
<path d="M8580 935 l0 -355 85 0 85 0 0 203 1 202 24 -30 c14 -16 78 -108 142
-202 l118 -173 78 0 77 0 -2 353 -3 352 -85 0 -85 0 0 -198 c0 -116 -4 -196
-9 -194 -5 2 -69 91 -142 198 l-132 194 -76 3 -76 3 0 -356z"/>
<path d="M9297 1283 c-4 -3 -7 -163 -7 -355 l0 -350 193 4 c187 3 194 4 249
31 97 48 150 126 170 252 33 213 -74 378 -267 414 -64 12 -327 15 -338 4z
m353 -162 c14 -7 37 -28 50 -48 22 -32 25 -49 28 -132 2 -85 0 -101 -20 -135
-32 -56 -73 -76 -163 -83 l-75 -6 0 213 0 213 78 -5 c42 -3 88 -11 102 -17z"/>
<path d="M10010 936 l0 -355 23 -3 c12 -2 118 -2 235 0 l213 3 -3 67 -3 67
-147 3 -148 3 0 284 0 285 -85 0 -85 0 0 -354z"/>
<path d="M10428 1284 c-3 -3 16 -44 42 -92 128 -235 174 -318 191 -346 16 -26
19 -51 19 -148 l0 -118 85 0 85 0 0 118 c0 112 2 119 31 172 17 30 53 98 81
150 28 52 54 100 58 105 19 25 80 144 80 154 0 8 -28 11 -91 9 l-90 -3 -76
-145 c-41 -80 -77 -147 -78 -149 -2 -2 -38 65 -79 148 l-76 151 -88 0 c-49 0
-91 -2 -94 -6z"/>
<path d="M6030 935 l0 -64 165 -3 165 -3 0 68 0 67 -165 0 -165 0 0 -65z"/>
</g>
</svg>
