<?xml version="1.0" standalone="no"?>
<!DOCTYPE svg PUBLIC "-//W3C//DTD SVG 20010904//EN"
 "http://www.w3.org/TR/2001/REC-SVG-20010904/DTD/svg10.dtd">
<svg version="1.0" xmlns="http://www.w3.org/2000/svg"
 width="722.000000pt" height="291.000000pt" viewBox="0 0 722.000000 291.000000"
 preserveAspectRatio="xMidYMid meet">

<g transform="translate(0.000000,291.000000) scale(0.100000,-0.100000)"
fill="#000000" stroke="none">
<path d="M2349 2819 c-864 -52 -1591 -345 -1878 -757 -29 -42 -79 -143 -99
-202 -12 -36 -16 -113 -19 -370 -5 -369 -3 -390 62 -525 207 -432 868 -750
1760 -847 188 -20 753 -17 935 5 873 109 1502 423 1700 850 54 117 60 159 59
415 -1 203 -2 222 -13 176 -16 -66 -77 -195 -118 -248 -58 -76 -110 -125 -127
-119 -11 3 -12 2 -4 -4 15 -11 -116 -120 -232 -193 -82 -52 -256 -139 -356
-179 l-55 -22 -650 436 c-357 240 -648 441 -646 447 2 6 -4 8 -12 5 -9 -4 -18
-2 -21 3 -4 6 404 10 1114 10 l1121 0 0 38 c0 50 -34 171 -67 235 -159 315
-584 581 -1168 730 -399 102 -850 143 -1286 116z m1931 -783 c0 -31 -40 -106
-56 -106 -9 0 -14 5 -11 13 3 6 12 29 21 50 l16 37 -25 0 c-14 0 -25 5 -25 10
0 6 18 10 40 10 28 0 40 -4 40 -14z m142 -28 c2 -24 2 -51 0 -60 -5 -22 -32
-24 -32 -3 0 9 -9 15 -25 15 -30 0 -31 12 -4 56 30 49 56 45 61 -8z m88 -8 c0
-27 5 -50 10 -50 6 0 10 -4 10 -10 0 -5 -18 -10 -40 -10 -22 0 -40 5 -40 10 0
6 5 10 10 10 15 0 12 67 -2 73 -17 7 9 27 35 27 14 0 17 -9 17 -50z m89 28 l8
-22 14 22 c8 12 20 22 27 22 7 0 -8 -27 -33 -60 -25 -33 -51 -60 -56 -60 -12
0 -4 17 23 46 19 21 19 21 -6 17 -28 -6 -43 15 -32 42 8 23 45 18 55 -7z
m-3399 -22 c0 -27 -41 -106 -55 -106 -20 0 -19 13 5 60 l20 40 -30 0 c-16 0
-30 5 -30 10 0 6 20 10 45 10 31 0 45 -4 45 -14z m100 5 c0 -4 -10 -31 -21
-60 -15 -35 -27 -51 -40 -51 -18 0 -17 2 1 46 25 57 25 54 -5 54 -14 0 -25 5
-25 10 0 6 20 10 45 10 25 0 45 -4 45 -9z m146 -8 c-29 -79 -43 -103 -58 -103
-22 0 -22 2 2 50 25 49 25 50 -5 50 -14 0 -25 5 -25 10 0 6 21 10 46 10 40 0
45 -2 40 -17z m90 -19 c1 -17 4 -36 8 -43 12 -18 -13 -41 -44 -41 -35 0 -57
24 -41 44 6 7 9 21 5 30 -12 30 4 47 38 44 29 -3 33 -7 34 -34z m74 10 l0 -25
24 28 c13 15 28 25 32 21 4 -5 0 -16 -9 -26 -22 -24 -21 -32 2 -32 25 0 34
-14 26 -40 -4 -12 -15 -20 -30 -20 -24 0 -39 23 -29 43 3 7 -4 0 -16 -15 -12
-16 -28 -28 -37 -28 -11 0 -10 6 7 28 l22 27 -22 3 c-42 7 -39 62 5 62 20 0
25 -5 25 -26z m3055 -34 c0 -18 -6 -26 -23 -28 -24 -4 -38 18 -28 44 3 9 15
14 28 12 17 -2 23 -10 23 -28z m-335 -14 c0 -14 -28 -42 -35 -34 -2 2 -2 14 2
26 6 24 33 31 33 8z m-2980 -30 c0 -14 -28 -42 -35 -34 -2 2 -2 14 2 26 6 24
33 31 33 8z"/>
<path d="M4376 1995 c-3 -8 -1 -15 4 -15 6 0 10 7 10 15 0 8 -2 15 -4 15 -2 0
-6 -7 -10 -15z"/>
<path d="M4562 2020 c0 -14 2 -19 5 -12 2 6 2 18 0 25 -3 6 -5 1 -5 -13z"/>
<path d="M1490 1990 c0 -5 5 -10 10 -10 6 0 10 5 10 10 0 6 -4 10 -10 10 -5 0
-10 -4 -10 -10z"/>
<path d="M1490 1936 c0 -9 5 -16 10 -16 6 0 10 4 10 9 0 6 -4 13 -10 16 -5 3
-10 -1 -10 -9z"/>
<path d="M1582 1990 c0 -14 2 -19 5 -12 2 6 2 18 0 25 -3 6 -5 1 -5 -13z"/>
<path d="M1652 1930 c0 -14 2 -19 5 -12 2 6 2 18 0 25 -3 6 -5 1 -5 -13z"/>
<path d="M4634 1969 c-3 -6 -1 -16 5 -22 8 -8 11 -5 11 11 0 24 -5 28 -16 11z"/>
<path d="M5260 2225 c0 -2 7 -23 16 -45 9 -22 14 -47 10 -55 -3 -9 0 -15 8
-15 13 0 46 77 46 107 0 26 -19 12 -26 -19 l-7 -33 -14 33 c-7 17 -18 32 -23
32 -6 0 -10 -2 -10 -5z"/>
<path d="M5372 2221 c-8 -5 -12 -22 -10 -42 2 -28 7 -34 27 -34 13 0 26 5 28
12 3 7 -3 9 -16 6 -17 -4 -21 -1 -21 22 0 23 4 26 21 22 13 -3 19 -1 16 6 -5
15 -28 19 -45 8z"/>
<path d="M5457 2223 c-4 -3 -7 -16 -7 -28 0 -11 -5 -26 -12 -33 -17 -17 -2
-28 17 -12 8 7 15 23 15 36 0 13 5 24 10 24 6 0 10 -16 10 -35 0 -19 5 -35 10
-35 6 0 10 20 10 45 0 40 -2 45 -23 45 -13 0 -27 -3 -30 -7z"/>
<path d="M5552 2218 c-6 -6 -12 -24 -12 -39 0 -31 26 -45 61 -34 16 5 20 14
17 43 -3 31 -7 37 -28 40 -14 2 -31 -3 -38 -10z m48 -33 c0 -25 -23 -35 -35
-15 -10 16 2 40 20 40 9 0 15 -9 15 -25z"/>
<path d="M5650 2186 c0 -41 2 -46 23 -46 36 0 47 14 44 51 -2 30 -6 34 -35 37
-32 3 -32 3 -32 -42z m50 -16 c0 -5 -7 -10 -15 -10 -8 0 -15 5 -15 10 0 6 7
10 15 10 8 0 15 -4 15 -10z"/>
<path d="M5740 2185 c0 -25 5 -45 10 -45 6 0 10 9 10 20 0 13 7 20 20 20 13 0
20 -7 20 -20 0 -11 5 -20 10 -20 6 0 10 20 10 45 0 25 -4 45 -10 45 -5 0 -10
-7 -10 -15 0 -8 -9 -15 -20 -15 -11 0 -20 7 -20 15 0 8 -4 15 -10 15 -5 0 -10
-20 -10 -45z"/>
<path d="M5852 2218 c-30 -30 -3 -82 40 -76 29 4 47 50 28 72 -15 19 -51 21
-68 4z m51 -20 c6 -19 -3 -38 -18 -38 -18 0 -28 17 -21 35 7 18 33 20 39 3z"/>
<path d="M5992 2203 c2 -20 9 -29 26 -31 12 -2 22 -10 22 -18 0 -8 5 -14 10
-14 6 0 10 20 10 45 0 25 -4 45 -10 45 -5 0 -10 -9 -10 -20 0 -11 -7 -20 -15
-20 -8 0 -15 9 -15 20 0 11 -5 20 -11 20 -6 0 -9 -12 -7 -27z"/>
<path d="M6090 2185 c0 -25 2 -45 5 -45 3 0 17 12 30 27 l23 28 -5 -28 c-4
-20 -1 -27 11 -27 12 0 16 10 16 45 0 50 -12 57 -41 23 l-18 -23 -1 23 c0 12
-4 22 -10 22 -5 0 -10 -20 -10 -45z"/>
<path d="M6202 2218 c-17 -17 -15 -65 4 -72 26 -10 44 -7 44 8 0 8 -8 13 -17
12 -12 -1 -18 6 -18 19 0 13 6 20 18 19 9 -1 17 4 17 12 0 17 -32 18 -48 2z"/>
<path d="M6270 2220 c0 -5 5 -10 10 -10 6 0 10 -16 10 -35 0 -19 5 -35 10 -35
6 0 10 16 10 35 0 19 5 35 10 35 6 0 10 5 10 10 0 6 -13 10 -30 10 -16 0 -30
-4 -30 -10z"/>
<path d="M6355 2221 c-4 -7 5 -11 22 -12 28 -1 28 -1 3 -8 -18 -5 -25 -14 -25
-31 0 -21 5 -25 33 -27 33 -1 33 -1 30 40 -3 37 -6 42 -30 45 -14 2 -29 -2
-33 -7z m40 -51 c-3 -5 -10 -10 -16 -10 -5 0 -9 5 -9 10 0 6 7 10 16 10 8 0
12 -4 9 -10z"/>
<path d="M6453 2218 c-11 -18 -12 -78 -1 -78 5 0 11 7 14 15 4 8 10 15 15 15
5 0 9 -7 9 -15 0 -8 5 -15 10 -15 6 0 10 20 10 45 0 41 -2 45 -24 45 -14 0
-28 -6 -33 -12z m37 -18 c0 -5 -4 -10 -10 -10 -5 0 -10 5 -10 10 0 6 5 10 10
10 6 0 10 -4 10 -10z"/>
<path d="M5573 1970 c-44 -18 -39 -120 7 -120 24 0 50 26 50 49 0 24 -25 45
-45 37 -8 -3 -15 -1 -15 4 0 5 11 12 25 16 14 3 25 10 25 15 0 11 -18 11 -47
-1z m31 -59 c9 -14 -4 -41 -20 -41 -8 0 -14 10 -14 25 0 25 23 35 34 16z"/>
<path d="M5282 1931 c-8 -5 -12 -22 -10 -42 2 -28 7 -34 27 -34 13 0 26 5 28
12 3 7 -3 9 -16 6 -17 -4 -21 -1 -21 22 0 23 4 26 21 22 13 -3 19 -1 16 6 -5
15 -28 19 -45 8z"/>
<path d="M5367 1933 c-4 -3 -7 -16 -7 -28 0 -11 -5 -26 -12 -33 -17 -17 -2
-28 17 -12 8 7 15 23 15 36 0 13 5 24 10 24 6 0 10 -16 10 -35 0 -19 5 -35 10
-35 6 0 10 20 10 45 0 40 -2 45 -23 45 -13 0 -27 -3 -30 -7z"/>
<path d="M5455 1931 c-4 -7 5 -11 22 -12 28 -1 28 -1 3 -8 -18 -5 -25 -14 -25
-31 0 -21 5 -26 33 -28 l33 -3 -3 43 c-3 38 -6 43 -30 46 -14 2 -29 -2 -33 -7z
m45 -51 c0 -5 -7 -10 -15 -10 -8 0 -15 5 -15 10 0 6 7 10 15 10 8 0 15 -4 15
-10z"/>
<path d="M5663 1933 c-7 -2 -13 -20 -13 -39 0 -28 4 -35 25 -40 33 -8 55 11
55 46 0 34 -29 49 -67 33z m42 -38 c0 -11 -8 -21 -17 -23 -14 -3 -18 3 -18 23
0 20 4 26 18 23 9 -2 17 -12 17 -23z"/>
<path d="M5796 1931 c-9 -14 4 -41 20 -41 8 0 14 -5 14 -11 0 -7 -9 -9 -21 -6
-13 3 -19 1 -16 -6 5 -17 42 -20 55 -4 17 20 0 71 -25 75 -12 2 -24 -1 -27 -7z
m31 -17 c-3 -3 -12 -4 -19 -1 -8 3 -5 6 6 6 11 1 17 -2 13 -5z"/>
<path d="M5880 1930 c0 -5 10 -10 23 -11 l22 0 -21 -9 c-49 -19 -40 -60 12
-58 31 1 34 4 34 33 0 17 -5 36 -12 43 -15 15 -58 16 -58 2z m45 -50 c-3 -5
-10 -10 -16 -10 -5 0 -9 5 -9 10 0 6 7 10 16 10 8 0 12 -4 9 -10z"/>
<path d="M5970 1895 c0 -25 5 -45 10 -45 6 0 10 16 10 35 0 24 5 35 15 35 8 0
15 5 15 10 0 6 -11 10 -25 10 -23 0 -25 -4 -25 -45z"/>
<path d="M6040 1879 c0 -33 4 -59 10 -59 6 0 10 6 10 14 0 9 12 16 28 18 24 3
27 7 27 43 0 39 -1 40 -37 42 l-38 1 0 -59z m60 22 c0 -11 -5 -23 -11 -27 -15
-9 -33 12 -26 30 9 23 37 20 37 -3z"/>
<path d="M6153 1928 c-11 -18 -12 -78 -1 -78 5 0 11 7 14 15 4 8 10 15 15 15
5 0 9 -7 9 -15 0 -8 5 -15 10 -15 6 0 10 20 10 45 0 41 -2 45 -24 45 -14 0
-28 -6 -33 -12z m37 -18 c0 -5 -4 -10 -10 -10 -5 0 -10 5 -10 10 0 6 5 10 10
10 6 0 10 -4 10 -10z"/>
<path d="M6245 1931 c-3 -6 2 -11 12 -12 10 0 13 -3 6 -6 -18 -7 -16 -23 2
-23 8 0 15 -5 15 -11 0 -7 -10 -9 -25 -6 -16 3 -24 0 -22 -7 2 -6 17 -11 33
-11 27 0 29 2 29 40 0 33 -4 41 -22 43 -11 2 -24 -2 -28 -7z"/>
<path d="M6320 1895 c0 -25 5 -45 10 -45 6 0 10 9 10 20 0 13 7 20 20 20 13 0
20 -7 20 -20 0 -11 5 -20 10 -20 6 0 10 20 10 45 0 25 -4 45 -10 45 -5 0 -10
-7 -10 -15 0 -8 -9 -15 -20 -15 -11 0 -20 7 -20 15 0 8 -4 15 -10 15 -5 0 -10
-20 -10 -45z"/>
<path d="M6428 1915 c-8 -19 -9 -31 -1 -43 11 -19 64 -23 70 -6 2 7 -6 10 -22
7 -15 -3 -25 -1 -25 6 0 6 12 11 26 11 21 0 25 4 22 23 -5 35 -54 36 -70 2z
m49 -1 c-3 -3 -12 -4 -19 -1 -8 3 -5 6 6 6 11 1 17 -2 13 -5z"/>
<path d="M6530 1895 c0 -25 5 -45 10 -45 6 0 10 9 10 20 0 11 7 20 15 20 8 0
15 -9 15 -20 0 -11 5 -20 10 -20 6 0 10 20 10 45 0 25 -4 45 -10 45 -5 0 -10
-7 -10 -15 0 -8 -7 -15 -15 -15 -8 0 -15 7 -15 15 0 8 -4 15 -10 15 -5 0 -10
-20 -10 -45z"/>
<path d="M6630 1895 c0 -25 5 -45 10 -45 6 0 10 9 10 20 0 13 7 20 20 20 13 0
20 -7 20 -20 0 -11 5 -20 10 -20 6 0 10 20 10 45 0 25 -4 45 -10 45 -5 0 -10
-7 -10 -15 0 -8 -9 -15 -20 -15 -11 0 -20 7 -20 15 0 8 -4 15 -10 15 -5 0 -10
-20 -10 -45z"/>
<path d="M6740 1931 c0 -6 10 -11 23 -12 20 0 19 -2 -6 -11 -41 -15 -34 -52
11 -56 l33 -3 -3 43 c-3 39 -6 43 -30 46 -16 2 -28 -1 -28 -7z m40 -51 c0 -5
-7 -10 -15 -10 -8 0 -15 5 -15 10 0 6 7 10 15 10 8 0 15 -4 15 -10z"/>
<path d="M6834 1925 c-3 -8 -4 -20 -1 -27 2 -7 0 -21 -5 -30 -6 -13 -5 -18 6
-18 7 0 16 7 20 15 3 8 10 15 16 15 5 0 10 -7 10 -15 0 -8 5 -15 10 -15 6 0
10 20 10 45 0 43 -1 45 -30 45 -18 0 -33 -6 -36 -15z m46 -15 c0 -5 -7 -10
-15 -10 -8 0 -15 5 -15 10 0 6 7 10 15 10 8 0 15 -4 15 -10z"/>
<path d="M5100 1620 l0 -60 55 0 55 0 0 60 0 60 -55 0 -55 0 0 -60z m100 0 l0
-50 -45 0 -45 0 0 50 0 50 45 0 45 0 0 -50z"/>
<path d="M5275 1651 c-3 -6 2 -11 12 -12 10 0 13 -3 6 -6 -18 -7 -16 -23 2
-23 8 0 15 -5 15 -11 0 -7 -10 -9 -25 -6 -16 3 -24 0 -22 -7 2 -6 17 -11 33
-11 27 0 29 2 29 40 0 33 -4 41 -22 43 -11 2 -24 -2 -28 -7z"/>
<path d="M5355 1651 c-4 -7 5 -11 22 -12 28 -1 28 -1 3 -8 -18 -5 -25 -14 -25
-31 0 -21 5 -26 33 -28 l33 -3 -3 43 c-3 38 -6 43 -30 46 -14 2 -29 -2 -33 -7z
m45 -51 c0 -5 -7 -10 -15 -10 -8 0 -15 5 -15 10 0 6 7 10 15 10 8 0 15 -4 15
-10z"/>
<path d="M5450 1615 c0 -25 5 -45 10 -45 6 0 10 16 10 35 0 24 5 35 15 35 8 0
15 5 15 10 0 6 -11 10 -25 10 -23 0 -25 -4 -25 -45z"/>
<path d="M5520 1598 c0 -32 4 -58 10 -58 6 0 10 9 10 19 0 14 5 18 20 14 14
-4 23 2 31 20 17 37 -3 67 -41 64 -30 -2 -30 -3 -30 -59z m50 17 c0 -16 -6
-25 -15 -25 -9 0 -15 9 -15 25 0 16 6 25 15 25 9 0 15 -9 15 -25z"/>
<path d="M5624 1645 c-4 -8 -4 -21 -1 -29 3 -7 0 -19 -6 -25 -18 -18 1 -25 21
-8 23 21 32 21 32 2 0 -8 5 -15 10 -15 6 0 10 20 10 45 0 43 -1 45 -30 45 -18
0 -33 -6 -36 -15z m46 -15 c0 -5 -7 -10 -15 -10 -8 0 -15 5 -15 10 0 6 7 10
15 10 8 0 15 -4 15 -10z"/>
<path d="M5716 1651 c-9 -14 4 -41 20 -41 8 0 14 -5 14 -11 0 -7 -9 -9 -21 -6
-13 3 -19 1 -16 -6 5 -17 42 -20 55 -4 17 20 0 71 -25 75 -12 2 -24 -1 -27 -7z
m31 -17 c-3 -3 -12 -4 -19 -1 -8 3 -5 6 6 6 11 1 17 -2 13 -5z"/>
<path d="M5800 1615 c0 -25 5 -45 10 -45 6 0 10 9 10 20 0 11 7 20 15 20 8 0
15 -9 15 -20 0 -11 7 -20 15 -20 11 0 15 12 15 45 0 33 -4 45 -15 45 -8 0 -15
-7 -15 -15 0 -8 -7 -15 -15 -15 -8 0 -15 7 -15 15 0 8 -4 15 -10 15 -5 0 -10
-20 -10 -45z"/>
<path d="M5912 1648 c-7 -7 -12 -25 -12 -40 0 -21 6 -29 24 -34 26 -6 46 1 46
16 0 4 -8 6 -19 3 -10 -3 -22 0 -25 6 -5 7 4 11 23 11 19 0 31 5 31 13 0 18
-21 37 -40 37 -9 0 -21 -5 -28 -12z m35 -14 c-3 -3 -12 -4 -19 -1 -8 3 -5 6 6
6 11 1 17 -2 13 -5z"/>
<path d="M6000 1615 c0 -25 5 -45 10 -45 6 0 10 9 10 20 0 11 7 20 15 20 8 0
15 -9 15 -20 0 -11 7 -20 15 -20 11 0 15 12 15 45 0 33 -4 45 -15 45 -8 0 -15
-7 -15 -15 0 -8 -7 -15 -15 -15 -8 0 -15 7 -15 15 0 8 -4 15 -10 15 -5 0 -10
-20 -10 -45z"/>
<path d="M6100 1615 c0 -25 5 -45 10 -45 6 0 10 9 10 20 0 13 7 20 20 20 13 0
20 -7 20 -20 0 -11 5 -20 10 -20 6 0 10 20 10 45 0 25 -4 45 -10 45 -5 0 -10
-7 -10 -15 0 -8 -9 -15 -20 -15 -11 0 -20 7 -20 15 0 8 -4 15 -10 15 -5 0 -10
-20 -10 -45z"/>
<path d="M6210 1650 c0 -5 10 -10 23 -11 l22 0 -21 -9 c-49 -19 -40 -60 12
-58 31 1 34 4 34 33 0 17 -5 36 -12 43 -15 15 -58 16 -58 2z m45 -50 c-3 -5
-10 -10 -16 -10 -5 0 -9 5 -9 10 0 6 7 10 16 10 8 0 12 -4 9 -10z"/>
<path d="M6313 1652 c-6 -4 -11 -24 -11 -44 0 -39 11 -50 22 -23 3 8 10 15 16
15 5 0 10 -7 10 -15 0 -8 5 -15 10 -15 6 0 10 20 10 45 0 40 -2 45 -22 45 -13
0 -28 -4 -35 -8z m37 -22 c0 -5 -7 -10 -15 -10 -8 0 -15 5 -15 10 0 6 7 10 15
10 8 0 15 -4 15 -10z"/>
<path d="M5100 1330 l0 -50 55 0 55 0 0 50 0 50 -55 0 -55 0 0 -50z"/>
<path d="M5283 1363 c-7 -2 -13 -20 -13 -39 0 -28 4 -35 25 -40 33 -8 55 11
55 46 0 34 -29 49 -67 33z m42 -38 c0 -11 -8 -21 -17 -23 -14 -3 -18 3 -18 23
0 20 4 26 18 23 9 -2 17 -12 17 -23z"/>
<path d="M5372 1343 c2 -20 9 -29 26 -31 12 -2 22 -10 22 -18 0 -8 5 -14 10
-14 6 0 10 20 10 45 0 25 -4 45 -10 45 -5 0 -10 -9 -10 -20 0 -11 -7 -20 -15
-20 -8 0 -15 9 -15 20 0 11 -5 20 -11 20 -6 0 -9 -12 -7 -27z"/>
<path d="M5468 1345 c-8 -19 -9 -31 -1 -43 11 -19 64 -23 70 -6 2 7 -6 10 -22
7 -15 -3 -25 -1 -25 6 0 6 12 11 26 11 21 0 25 4 22 23 -5 35 -54 36 -70 2z
m49 -1 c-3 -3 -12 -4 -19 -1 -8 3 -5 6 6 6 11 1 17 -2 13 -5z"/>
<path d="M5570 1325 c0 -25 5 -45 10 -45 6 0 10 9 10 20 0 11 7 20 15 20 8 0
15 -9 15 -20 0 -11 5 -20 10 -20 6 0 10 20 10 45 0 25 -4 45 -10 45 -5 0 -10
-7 -10 -15 0 -8 -7 -15 -15 -15 -8 0 -15 7 -15 15 0 8 -4 15 -10 15 -5 0 -10
-20 -10 -45z"/>
<path d="M5670 1325 c0 -43 1 -45 29 -45 37 0 59 24 41 45 -7 8 -21 15 -31 15
-11 0 -19 7 -19 15 0 8 -4 15 -10 15 -5 0 -10 -20 -10 -45z m50 -15 c0 -5 -7
-10 -15 -10 -8 0 -15 5 -15 10 0 6 7 10 15 10 8 0 15 -4 15 -10z"/>
<path d="M5806 1361 c-9 -14 4 -41 20 -41 8 0 14 -5 14 -11 0 -6 -9 -9 -20 -6
-11 3 -20 1 -20 -3 0 -15 20 -22 45 -16 20 5 24 11 22 44 -2 32 -6 37 -29 40
-14 2 -29 -1 -32 -7z m31 -17 c-3 -3 -12 -4 -19 -1 -8 3 -5 6 6 6 11 1 17 -2
13 -5z"/>
<path d="M5895 1361 c-4 -7 5 -11 22 -12 28 -1 28 -1 3 -8 -18 -5 -25 -14 -25
-31 0 -21 5 -25 33 -27 33 -1 33 -1 30 40 -3 37 -6 42 -30 45 -14 2 -29 -2
-33 -7z m40 -51 c-3 -5 -10 -10 -16 -10 -5 0 -9 5 -9 10 0 6 7 10 16 10 8 0
12 -4 9 -10z"/>
<path d="M5990 1325 c0 -25 5 -45 10 -45 6 0 10 16 10 35 0 24 5 35 15 35 8 0
15 5 15 10 0 6 -11 10 -25 10 -23 0 -25 -4 -25 -45z"/>
<path d="M6050 1309 c0 -33 4 -59 10 -59 6 0 10 6 10 14 0 9 12 16 28 18 24 3
27 7 27 43 0 39 -1 40 -37 42 l-38 1 0 -59z m60 22 c0 -11 -5 -23 -11 -27 -15
-9 -33 12 -26 30 9 23 37 20 37 -3z"/>
<path d="M6164 1355 c-4 -8 -4 -21 -1 -29 3 -7 0 -19 -6 -25 -18 -18 1 -25 21
-8 23 21 32 21 32 2 0 -8 5 -15 10 -15 6 0 10 20 10 45 0 43 -1 45 -30 45 -18
0 -33 -6 -36 -15z m46 -15 c0 -5 -7 -10 -15 -10 -8 0 -15 5 -15 10 0 6 7 10
15 10 8 0 15 -4 15 -10z"/>
<path d="M6256 1361 c-9 -14 4 -41 20 -41 8 0 14 -5 14 -11 0 -7 -9 -9 -21 -6
-13 3 -19 1 -16 -6 2 -7 15 -12 28 -12 21 0 24 4 24 40 0 33 -4 41 -22 43 -11
2 -24 -1 -27 -7z m31 -17 c-3 -3 -12 -4 -19 -1 -8 3 -5 6 6 6 11 1 17 -2 13
-5z"/>
<path d="M6340 1325 c0 -25 5 -45 10 -45 6 0 10 9 10 20 0 11 7 20 15 20 8 0
15 -9 15 -20 0 -11 5 -20 10 -20 6 0 10 20 10 45 0 25 -4 45 -10 45 -5 0 -10
-7 -10 -15 0 -8 -7 -15 -15 -15 -8 0 -15 7 -15 15 0 8 -4 15 -10 15 -5 0 -10
-20 -10 -45z"/>
<path d="M6452 1362 c-8 -6 -12 -23 -10 -43 3 -30 6 -34 32 -34 16 0 31 5 33
11 2 7 -6 10 -22 7 -15 -3 -25 -1 -25 6 0 6 12 11 26 11 21 0 25 4 22 23 -3
23 -33 34 -56 19z m35 -18 c-3 -3 -12 -4 -19 -1 -8 3 -5 6 6 6 11 1 17 -2 13
-5z"/>
<path d="M6540 1325 c0 -25 5 -45 10 -45 6 0 10 9 10 20 0 11 7 20 15 20 8 0
15 -9 15 -20 0 -11 7 -20 15 -20 11 0 15 12 15 45 0 33 -4 45 -15 45 -8 0 -15
-7 -15 -15 0 -8 -7 -15 -15 -15 -8 0 -15 7 -15 15 0 8 -4 15 -10 15 -5 0 -10
-20 -10 -45z"/>
<path d="M6640 1325 c0 -25 5 -45 10 -45 6 0 10 9 10 20 0 13 7 20 20 20 13 0
20 -7 20 -20 0 -11 5 -20 10 -20 6 0 10 20 10 45 0 25 -4 45 -10 45 -5 0 -10
-7 -10 -15 0 -8 -9 -15 -20 -15 -11 0 -20 7 -20 15 0 8 -4 15 -10 15 -5 0 -10
-20 -10 -45z"/>
<path d="M6750 1360 c0 -5 10 -10 23 -11 l22 0 -21 -9 c-49 -19 -40 -60 12
-58 31 1 34 4 34 33 0 17 -5 36 -12 43 -15 15 -58 16 -58 2z m45 -50 c-3 -5
-10 -10 -16 -10 -5 0 -9 5 -9 10 0 6 7 10 16 10 8 0 12 -4 9 -10z"/>
<path d="M6853 1362 c-6 -4 -11 -24 -11 -44 0 -39 11 -50 22 -23 3 8 10 15 16
15 5 0 10 -7 10 -15 0 -8 5 -15 10 -15 6 0 10 20 10 45 0 40 -2 45 -22 45 -13
0 -28 -4 -35 -8z m37 -22 c0 -5 -7 -10 -15 -10 -8 0 -15 5 -15 10 0 6 7 10 15
10 8 0 15 -4 15 -10z"/>
<path d="M5100 1045 l0 -55 55 0 55 0 0 55 0 55 -55 0 -55 0 0 -55z"/>
<path d="M5270 1035 c0 -25 5 -45 10 -45 6 0 10 16 10 35 0 24 5 35 15 35 8 0
15 5 15 10 0 6 -11 10 -25 10 -23 0 -25 -4 -25 -45z"/>
<path d="M5340 1019 c0 -33 4 -59 10 -59 6 0 10 9 10 20 0 13 5 18 15 14 21
-8 45 14 45 41 0 29 -18 43 -52 43 -27 0 -28 -2 -28 -59z m53 28 c3 -8 1 -20
-4 -28 -11 -19 -34 3 -26 25 8 20 23 21 30 3z"/>
<path d="M5453 1072 c-6 -4 -11 -24 -11 -44 0 -39 11 -50 22 -23 3 8 10 15 16
15 5 0 10 -7 10 -15 0 -8 5 -15 10 -15 6 0 10 20 10 45 0 40 -2 45 -22 45 -13
0 -28 -4 -35 -8z m37 -22 c0 -5 -7 -10 -15 -10 -8 0 -15 5 -15 10 0 6 7 10 15
10 8 0 15 -4 15 -10z"/>
<path d="M5536 1071 c-9 -14 4 -41 20 -41 8 0 14 -5 14 -11 0 -6 -9 -9 -20 -6
-11 3 -20 1 -20 -3 0 -15 20 -22 45 -16 20 5 24 11 22 44 -2 32 -6 37 -29 40
-14 2 -29 -1 -32 -7z m31 -17 c-3 -3 -12 -4 -19 -1 -8 3 -5 6 6 6 11 1 17 -2
13 -5z"/>
<path d="M5620 1035 c0 -25 5 -45 10 -45 6 0 10 9 10 20 0 13 7 20 20 20 13 0
20 -7 20 -20 0 -11 5 -20 10 -20 6 0 10 20 10 45 0 25 -4 45 -10 45 -5 0 -10
-7 -10 -15 0 -8 -9 -15 -20 -15 -11 0 -20 7 -20 15 0 8 -4 15 -10 15 -5 0 -10
-20 -10 -45z"/>
<path d="M5730 1071 c0 -6 10 -11 23 -12 20 0 19 -2 -6 -11 -41 -15 -34 -52
11 -56 l33 -3 -3 43 c-3 39 -6 43 -30 46 -16 2 -28 -1 -28 -7z m40 -51 c0 -5
-7 -10 -15 -10 -8 0 -15 5 -15 10 0 6 7 10 15 10 8 0 15 -4 15 -10z"/>
<path d="M5824 1065 c-3 -8 -4 -20 -1 -27 2 -7 0 -21 -5 -30 -6 -13 -5 -18 6
-18 7 0 16 7 20 15 3 8 10 15 16 15 5 0 10 -7 10 -15 0 -8 5 -15 10 -15 6 0
10 20 10 45 0 43 -1 45 -30 45 -18 0 -33 -6 -36 -15z m46 -15 c0 -5 -7 -10
-15 -10 -8 0 -15 5 -15 10 0 6 7 10 15 10 8 0 15 -4 15 -10z"/>
</g>
</svg>
